<svg width="124" height="124" viewBox="0 0 124 124" fill="none" xmlns="http://www.w3.org/2000/svg">
<g filter="url(#filter0_d_9_74)">
<circle cx="57" cy="46" r="32" fill="#F6F6F6"/>
</g>
<path d="M70.1255 46C69.7774 46 69.4435 46.1383 69.1974 46.3844C68.9512 46.6306 68.813 46.9644 68.813 47.3125C68.7975 47.699 68.7624 48.0845 68.708 48.4675L67.6317 47.9163C67.3365 47.7792 67.0994 47.542 66.9623 47.2469C66.5905 46.4803 66.0106 45.8338 65.2888 45.3813C64.567 44.9287 63.7324 44.6883 62.8805 44.6875C62.6616 44.7015 62.4427 44.6605 62.2438 44.5682C62.0449 44.4759 61.8723 44.3352 61.7418 44.1589C61.6112 43.9827 61.5269 43.7766 61.4966 43.5594C61.4662 43.3422 61.4907 43.1209 61.568 42.9156C61.7028 42.5368 61.8651 42.1683 62.0536 41.8131C62.1398 41.6632 62.1956 41.4977 62.2178 41.3262C62.24 41.1547 62.2283 40.9805 62.1832 40.8135C62.1381 40.6465 62.0605 40.4901 61.955 40.3531C61.8494 40.2161 61.7179 40.1012 61.568 40.015C61.418 39.9288 61.2525 39.873 61.081 39.8508C60.9095 39.8286 60.7353 39.8403 60.5683 39.8854C60.4013 39.9305 60.2449 40.0081 60.1079 40.1136C59.9709 40.2192 59.856 40.3507 59.7698 40.5006C59.4975 40.9971 59.2776 41.5205 59.1136 42.0625C58.8053 42.9689 58.8378 43.9565 59.2049 44.8407C59.5721 45.7249 60.2489 46.445 61.1086 46.8663C61.6583 47.1428 62.2651 47.2866 62.8805 47.2863C63.238 47.2841 63.5889 47.3826 63.893 47.5707C64.1971 47.7587 64.442 48.0286 64.5998 48.3494C64.9997 49.1429 65.6438 49.787 66.4373 50.1869L68.0911 51.0269C67.9301 51.5519 67.7328 52.065 67.5005 52.5625L63.7336 51.6175C63.3991 51.5366 63.0506 51.5324 62.7142 51.6051C62.3779 51.6779 62.0623 51.8257 61.7911 52.0375C61.5289 52.2446 61.3162 52.5076 61.1686 52.8073C61.0211 53.107 60.9422 53.4359 60.938 53.77V54.2425L59.6255 54.7019C59.4967 54.1742 59.1852 53.7091 58.7461 53.3894C58.4551 53.1815 58.119 53.0458 57.7653 52.9933C57.4116 52.9408 57.0505 52.9731 56.7117 53.0875L55.5961 53.455C54.2639 53.8925 53.1565 54.835 52.5117 56.08C51.9951 57.1209 51.9102 58.3237 52.2755 59.4269L52.5248 60.175C48.993 59.4985 45.8629 57.4745 43.7967 54.5313L46.9336 51.3944C47.5058 50.7934 47.8213 49.993 47.813 49.1631C47.8163 49.0215 47.8741 48.8865 47.9743 48.7863C48.0745 48.6861 48.2094 48.6283 48.3511 48.625H49.8998C50.7387 48.625 51.5433 48.2918 52.1365 47.6985C52.7297 47.1053 53.063 46.3008 53.063 45.4619V44.5169C53.0649 43.9304 52.9024 43.355 52.5938 42.8562C52.2852 42.3574 51.843 41.9551 51.3173 41.695C51.0518 41.566 50.8282 41.3644 50.6726 41.1135C50.5169 40.8626 50.4356 40.5727 50.438 40.2775V39.9494C50.4406 39.1706 50.2501 38.4034 49.8836 37.7163C49.5172 37.0291 48.9861 36.4436 48.338 36.0119L47.2486 35.2769C48.9804 34.0909 50.9606 33.317 53.0377 33.0144C55.1148 32.7118 57.2335 32.8886 59.2317 33.5313C59.5641 33.6357 59.9244 33.6038 60.2333 33.4426C60.5423 33.2813 60.7745 33.004 60.8789 32.6716C60.9833 32.3391 60.9514 31.9788 60.7902 31.6699C60.629 31.361 60.3516 31.1288 60.0192 31.0244C57.8133 30.3564 55.4913 30.1611 53.2048 30.4512C50.9184 30.7413 48.7187 31.5102 46.7495 32.7079C44.7803 33.9056 43.0858 35.5051 41.7766 37.4019C40.4674 39.2988 39.5728 41.4504 39.1514 43.7164C38.7299 45.9823 38.7911 48.3117 39.3307 50.5525C39.8704 52.7932 40.8765 54.895 42.2834 56.7206C43.6903 58.5462 45.4664 60.0546 47.4957 61.1474C49.525 62.2401 51.7619 62.8927 54.0605 63.0625C54.1651 63.0752 54.2708 63.0752 54.3755 63.0625H54.533H55.0317C59.2745 63.0757 63.3566 61.4408 66.4173 58.5026C69.478 55.5643 71.2781 51.5523 71.438 47.3125C71.438 46.9644 71.2997 46.6306 71.0535 46.3844C70.8074 46.1383 70.4735 46 70.1255 46ZM45.188 37.0619L46.9073 38.2038C47.1877 38.4003 47.4164 38.6617 47.5741 38.9656C47.7318 39.2695 47.8137 39.607 47.813 39.9494V40.2775C47.8106 41.0578 48.027 41.8231 48.4376 42.4867C48.8483 43.1502 49.4367 43.6853 50.1361 44.0313C50.226 44.0769 50.3017 44.1462 50.3549 44.2319C50.4081 44.3175 50.4369 44.4161 50.438 44.5169V45.4619C50.4346 45.6036 50.3769 45.7385 50.2766 45.8387C50.1764 45.9389 50.0415 45.9967 49.8998 46H48.3511C47.5122 46 46.7076 46.3333 46.1144 46.9265C45.5212 47.5197 45.188 48.3242 45.188 49.1631C45.189 49.2359 45.1756 49.3082 45.1486 49.3758C45.1215 49.4433 45.0814 49.5049 45.0305 49.5569L42.4055 52.1819C41.3076 49.6717 40.9859 46.8904 41.4818 44.1959C41.9776 41.5013 43.2684 39.0168 45.188 37.0619V37.0619ZM55.3205 60.4375L54.7036 58.6131C54.5673 58.1785 54.605 57.708 54.8086 57.3006C55.1378 56.676 55.6984 56.2049 56.3705 55.9881L57.053 55.7519C57.1817 56.2796 57.4932 56.7446 57.9323 57.0644C58.2233 57.2722 58.5595 57.408 58.9131 57.4604C59.2668 57.5129 59.6279 57.4806 59.9667 57.3663L62.0142 56.6838C62.4719 56.5347 62.8695 56.2424 63.1483 55.8501C63.4272 55.4578 63.5725 54.9862 63.563 54.505V54.2425L66.0961 54.8725C64.8468 56.5641 63.2252 57.9458 61.3568 58.9107C59.4883 59.8757 57.423 60.3981 55.3205 60.4375V60.4375Z" fill="#95DE1D"/>
<path d="M74.9551 35.0801C74.6982 34.5235 74.3103 34.0375 73.8245 33.6636C73.3387 33.2897 72.7695 33.0392 72.1657 32.9334C71.5619 32.8276 70.9414 32.8697 70.3575 33.0561C69.7735 33.2426 69.2434 33.5678 68.8126 34.0039C68.3818 33.5678 67.8517 33.2426 67.2677 33.0561C66.6838 32.8697 66.0633 32.8276 65.4595 32.9334C64.8557 33.0392 64.2865 33.2897 63.8007 33.6636C63.3149 34.0375 62.927 34.5235 62.6701 35.0801C62.3292 35.7762 62.1915 36.5542 62.2727 37.325C62.354 38.0957 62.6509 38.828 63.1295 39.4376L66.1876 43.3751C66.4899 43.7874 66.8851 44.1227 67.3412 44.3539C67.7972 44.585 68.3013 44.7054 68.8126 44.7054C69.3239 44.7054 69.828 44.585 70.284 44.3539C70.7401 44.1227 71.1353 43.7874 71.4376 43.3751L74.522 39.4376C74.9963 38.8254 75.2886 38.0919 75.3652 37.3212C75.4418 36.5504 75.2997 35.7738 74.9551 35.0801V35.0801ZM72.4351 37.8364L69.3507 41.7739C69.2885 41.858 69.2074 41.9264 69.1139 41.9735C69.0205 42.0206 68.9173 42.0451 68.8126 42.0451C68.7079 42.0451 68.6047 42.0206 68.5113 41.9735C68.4178 41.9264 68.3367 41.858 68.2745 41.7739V41.7739L65.1901 37.8364C65.0185 37.6075 64.9131 37.3359 64.8854 37.0512C64.8576 36.7665 64.9085 36.4797 65.0326 36.222C65.133 36.0016 65.2961 35.8156 65.5015 35.6872C65.7068 35.5589 65.9455 35.4938 66.1876 35.5001C66.3483 35.5014 66.5071 35.5359 66.6539 35.6014C66.8007 35.6669 66.9324 35.762 67.0407 35.8807L67.9201 36.8126C68.0429 36.9438 68.1913 37.0483 68.3561 37.1198C68.5209 37.1912 68.6986 37.2281 68.8782 37.2281C69.0579 37.2281 69.2356 37.1912 69.4004 37.1198C69.5652 37.0483 69.7136 36.9438 69.8364 36.8126L70.7157 35.8807C70.919 35.6567 71.2013 35.5202 71.5032 35.5001C71.7342 35.5064 71.9587 35.5773 72.1513 35.705C72.3439 35.8326 72.4968 36.0117 72.5926 36.222C72.7167 36.4797 72.7676 36.7665 72.7398 37.0512C72.7121 37.3359 72.6067 37.6075 72.4351 37.8364V37.8364Z" fill="#95DE1D"/>
<defs>
<filter id="filter0_d_9_74" x="0" y="0" width="124" height="124" filterUnits="userSpaceOnUse" color-interpolation-filters="sRGB">
<feFlood flood-opacity="0" result="BackgroundImageFix"/>
<feColorMatrix in="SourceAlpha" type="matrix" values="0 0 0 0 0 0 0 0 0 0 0 0 0 0 0 0 0 0 127 0" result="hardAlpha"/>
<feOffset dx="5" dy="16"/>
<feGaussianBlur stdDeviation="15"/>
<feComposite in2="hardAlpha" operator="out"/>
<feColorMatrix type="matrix" values="0 0 0 0 0 0 0 0 0 0 0 0 0 0 0 0 0 0 0.1 0"/>
<feBlend mode="normal" in2="BackgroundImageFix" result="effect1_dropShadow_9_74"/>
<feBlend mode="normal" in="SourceGraphic" in2="effect1_dropShadow_9_74" result="shape"/>
</filter>
</defs>
</svg>
