<svg width="124" height="124" viewBox="0 0 124 124" fill="none" xmlns="http://www.w3.org/2000/svg">
<g filter="url(#filter1)">
<circle cx="57" cy="46" r="32" fill="#F6F6F6"/>
</g>
<path d="M70.8994 30.25H43.1006C41.9136 30.25 40.7752 30.7215 39.9359 31.5609C39.0965 32.4002 38.625 33.5386 38.625 34.7256V46C38.625 46.3481 38.7633 46.6819 39.0094 46.9281C39.2556 47.1742 39.5894 47.3125 39.9375 47.3125C40.2856 47.3125 40.6194 47.1742 40.8656 46.9281C41.1117 46.6819 41.25 46.3481 41.25 46V34.7256C41.25 34.2348 41.445 33.7641 41.792 33.417C42.1391 33.07 42.6098 32.875 43.1006 32.875H70.8994C71.3902 32.875 71.8609 33.07 72.208 33.417C72.555 33.7641 72.75 34.2348 72.75 34.7256V58.5869C72.75 59.0777 72.555 59.5484 72.208 59.8955C71.8609 60.2425 71.3902 60.4375 70.8994 60.4375H43.1006C42.6098 60.4375 42.1391 60.2425 41.792 59.8955C41.445 59.5484 41.25 59.0777 41.25 58.5869V51.25C41.25 50.9019 41.1117 50.5681 40.8656 50.3219C40.6194 50.0758 40.2856 49.9375 39.9375 49.9375C39.5894 49.9375 39.2556 50.0758 39.0094 50.3219C38.7633 50.5681 38.625 50.9019 38.625 51.25V58.5869C38.625 59.1746 38.7408 59.7566 38.9657 60.2996C39.1906 60.8426 39.5203 61.336 39.9359 61.7516C40.3515 62.1672 40.8449 62.4969 41.3879 62.7218C41.9309 62.9467 42.5129 63.0625 43.1006 63.0625H70.8994C71.4871 63.0625 72.0691 62.9467 72.6121 62.7218C73.1551 62.4969 73.6485 62.1672 74.0641 61.7516C74.4797 61.336 74.8094 60.8426 75.0343 60.2996C75.2592 59.7566 75.375 59.1746 75.375 58.5869V34.7256C75.375 33.5386 74.9035 32.4002 74.0641 31.5609C73.2248 30.7215 72.0864 30.25 70.8994 30.25Z" fill="#95DE1D"/>
<path d="M68.8129 38.1251C68.9835 38.1272 69.1529 38.0959 69.3116 38.0332C69.4685 37.9571 69.6142 37.8599 69.7447 37.7444C69.8607 37.6169 69.9539 37.4704 70.0204 37.3113C70.0898 37.1542 70.1257 36.9843 70.1257 36.8126C70.1257 36.6408 70.0898 36.4709 70.0204 36.3138C69.9579 36.1527 69.8642 36.0055 69.7447 35.8807C69.5602 35.6986 69.3258 35.5752 69.0712 35.5261C68.8166 35.4771 68.5531 35.5046 68.3141 35.6051C68.1551 35.6715 68.0086 35.7648 67.881 35.8807C67.7615 36.0055 67.6678 36.1527 67.6054 36.3138C67.5381 36.4716 67.5024 36.641 67.5004 36.8126C67.4959 36.9847 67.5319 37.1555 67.6054 37.3113C67.6718 37.4704 67.7651 37.6169 67.881 37.7444C68.0036 37.8661 68.1491 37.9623 68.309 38.0276C68.4689 38.093 68.6401 38.1261 68.8129 38.1251Z" fill="#95DE1D"/>
<path d="M48.2981 46H50.4375C50.7856 46 51.1194 45.8617 51.3656 45.6156C51.6117 45.3694 51.75 45.0356 51.75 44.6875C51.75 44.3394 51.6117 44.0056 51.3656 43.7594C51.1194 43.5133 50.7856 43.375 50.4375 43.375H48.2981C47.8896 43.375 47.4851 43.4555 47.1077 43.6118C46.7303 43.7681 46.3874 43.9972 46.0986 44.2861C45.8097 44.5749 45.5806 44.9178 45.4243 45.2952C45.268 45.6726 45.1875 46.0771 45.1875 46.4856V50.7644C45.1875 51.5894 45.5152 52.3806 46.0986 52.9639C46.6819 53.5473 47.4731 53.875 48.2981 53.875H50.4375C50.7856 53.875 51.1194 53.7367 51.3656 53.4906C51.6117 53.2444 51.75 52.9106 51.75 52.5625C51.75 52.2144 51.6117 51.8806 51.3656 51.6344C51.1194 51.3883 50.7856 51.25 50.4375 51.25H48.2981C48.1704 51.2467 48.0488 51.1944 47.9584 51.1041C47.868 51.0137 47.8158 50.8921 47.8125 50.7644V49.9375H50.4375C50.7856 49.9375 51.1194 49.7992 51.3656 49.5531C51.6117 49.3069 51.75 48.9731 51.75 48.625C51.75 48.2769 51.6117 47.9431 51.3656 47.6969C51.1194 47.4508 50.7856 47.3125 50.4375 47.3125H47.8125V46.4856C47.8158 46.3579 47.868 46.2363 47.9584 46.1459C48.0488 46.0556 48.1704 46.0033 48.2981 46Z" fill="#95DE1D"/>
<path d="M56.1731 46H58.3125C58.6606 46 58.9944 45.8617 59.2406 45.6156C59.4867 45.3694 59.625 45.0356 59.625 44.6875C59.625 44.3394 59.4867 44.0056 59.2406 43.7594C58.9944 43.5133 58.6606 43.375 58.3125 43.375H56.1731C55.3481 43.375 54.5569 43.7027 53.9736 44.2861C53.3902 44.8694 53.0625 45.6606 53.0625 46.4856V50.7644C53.0625 51.5894 53.3902 52.3806 53.9736 52.9639C54.5569 53.5473 55.3481 53.875 56.1731 53.875H58.3125C58.6606 53.875 58.9944 53.7367 59.2406 53.4906C59.4867 53.2444 59.625 52.9106 59.625 52.5625C59.625 52.2144 59.4867 51.8806 59.2406 51.6344C58.9944 51.3883 58.6606 51.25 58.3125 51.25H56.1731C56.0454 51.2467 55.9238 51.1944 55.8334 51.1041C55.743 51.0137 55.6908 50.8921 55.6875 50.7644V46.4856C55.6908 46.3579 55.743 46.2363 55.8334 46.1459C55.9238 46.0556 56.0454 46.0033 56.1731 46Z" fill="#95DE1D"/>
<path d="M60.9375 51.3681C60.9409 52.0319 61.2062 52.6676 61.6756 53.1369C62.1449 53.6063 62.7806 53.8716 63.4444 53.875H66.3056C66.9694 53.8716 67.6051 53.6063 68.0744 53.1369C68.5438 52.6676 68.8091 52.0319 68.8125 51.3681V45.8819C68.8091 45.2181 68.5438 44.5824 68.0744 44.1131C67.6051 43.6437 66.9694 43.3784 66.3056 43.375H63.4444C62.7806 43.3784 62.1449 43.6437 61.6756 44.1131C61.2062 44.5824 60.9409 45.2181 60.9375 45.8819V51.3681ZM63.5625 46H66.1875V51.25H63.5625V46Z" fill="#95DE1D"/>
<defs>
<filter id="filter1" x="0" y="0" width="124" height="124" filterUnits="userSpaceOnUse" color-interpolation-filters="sRGB">
<feFlood flood-opacity="0" result="BackgroundImageFix"/>
<feColorMatrix in="SourceAlpha" type="matrix" values="0 0 0 0 0 0 0 0 0 0 0 0 0 0 0 0 0 0 127 0" result="hardAlpha"/>
<feOffset dx="5" dy="16"/>
<feGaussianBlur stdDeviation="15"/>
<feComposite in2="hardAlpha" operator="out"/>
<feColorMatrix type="matrix" values="0 0 0 0 0 0 0 0 0 0 0 0 0 0 0 0 0 0 0.1 0"/>
<feBlend mode="normal" in2="BackgroundImageFix" result="effect1_dropShadow_9_90"/>
<feBlend mode="normal" in="SourceGraphic" in2="effect1_dropShadow_9_90" result="shape"/>
</filter>
</defs>
</svg>
